<svg xmlns="http://www.w3.org/2000/svg" viewBox="0 0 800 800"><style>.st0{fill:#fff}.st1{fill:#0f2446}.st2{fill:#0070d0}</style><g id="Objects"><path class="st0" d="M148.4 534.3l5.4 7-4.1 9.8-2.9-2.4z"/><path transform="rotate(-89.426 707.268 152.012) scale(.99995)" class="st0" d="M698.8 148.5h16.8v7.1h-16.8z"/><path class="st0" d="M603.1 656.4l5.4 7-4.1 9.7-2.9-2.3zM169.8 754.5l-10.8 8.7 5.3-16.8 10.8-8.7zM600.7 481.8l-4.6-9.9 13.3 10.8 4.6 9.9zM224.3 128.5l-11.7-4.7 11-7 11.7 4.7zM267.5 209.2l-3.5-18.4 9.5 11.3 3.4 18.4zM312.3 707.2l6-16.7 1.4 18.7-6 16.7zM148.8 320.2l12.1 8-2.1 18.7-12.2-8zM564.6 140.2v21.6l-25.1-1.2V139zM118.7 216.5l3.4 16.8-17.5-4.9-3.4-16.8zM760.4 23.4l19.9 4.1-5.9 22.8-19.9-4.1zM287.5 283.1l19.9 4.1-5.9 22.8-19.9-4.1zM91.7 471.6l19.9 4.1-5.9 22.9-19.9-4.1zM69.7 684.6l19.9 4.1-5.9 22.8-19.9-4zM744 473l19.9 4.1L758 500l-19.9-4.1zM380.1 35.8l18.8 7.6-9.9 21.4-18.9-7.6zM540.7 585.9l6.3 20.6-24.3 6.2-6.3-20.7zM659.8 286.7l12.2 11.4 1.8 15.5-19.9-4.1zM525.9 353l20.5 6.6-8.8 23.5-20.6-6.6zM622.3 722.7l20.5 6.6-8.9 23.5-20.5-6.7zM65.5 76.9l8 18.7-22.1 8.2-8.1-18.7zM496.4 749.7l8 18.7-22.2 8.2-8-18.7zM66.5 333.5l8.1 18.7-22.2 8.2-8-18.7zM473.7 203l19.9 4.1-5.9 22.8-19.9-4.1zM153.9 693.8l-8.2-10.6 6.1-14.6 4.4 3.5zM455.5 575l-8.1-10.6 6.1-14.6 4.3 3.5zM463.1 309.5l17.6 7.2-16.5 10.5-17.6-7.2zM421.2 406.8l17.5 7.1-16.5 10.5-17.5-7.1zM688.7 635.3l17.2 7-16.2 10.3-17.2-7zM317.9 222.4l-5.4-7 4.1-9.8 2.9 2.4zM383.6 642.7l-20.9-8.2-17.6 10.7 20.9 8.2zM249.8 510l4.8 25.9-13.2-16-4.9-25.8z"/><path transform="matrix(.00993 -1 1 .00993 -231.188 1091.256)" class="st0" d="M427.2 658.9h16.5v7h-16.5z"/><path class="st0" d="M437.4 670.6l-5.3-6.9 3.9-9.5 2.9 2.3zM227.5 350.3l7.3 14.8-11.1-5-7.3-14.8zM637.3 167l6.3-16.5 1.1 18.8-6.3 16.4zM586.3 43.9l1.1 20.7-13.3-7.9-1-20.6zM353.3 352.2l11.5 7.3-19.6 8.6-11.5-7.4zM203.5 622.8l12.2-5.9-3 21.1-12.3 6zM688 513.4l12.2-5.9-3 21.1-12.2 5.9z"/><path transform="matrix(.00995 -1 1 .00995 321.613 594.844)" class="st0" d="M452.9 131.5h16.5v7h-16.5z"/><path class="st0" d="M353.6 493.5l11.7 4.8-11 7-11.7-4.8zM61.4 413.2l3.5 18.4-9.5-11.4-3.4-18.4zM764.7 181.7l10.8-8.7-5.4 16.8-10.7 8.7zM213.2 269.6l9.8-8 .9 13-9.7 8zM480.3 44.4l11.7 4.8-11 7-11.7-4.8z"/><path class="st1" d="M762 356.7l5.4 7-4 9.8-2.9-2.4zM115.9 381.9l5.4 7.1-4 9.7-2.9-2.3zM57.1 640.2l-7.8 14.7.8-18.8 7.8-14.7zM619.4 578.8l-7.8 14.7.8-18.8 7.8-14.7zM329.5 122.7l-11.6-4.8 11-7 11.6 4.7zM547.7 698.1l-4.6-9.9 13.3 10.8 4.6 9.9zM241.2 724l-4.5-9.9 13.3 10.7 4.5 9.9zM478.2 410.4l-10.9-.7 15.8-6.6 10.9.7zM719 245.2l19.9 4.1-5.9 22.8-19.9-4.1zM400 278.5l2.2 20.2-23.6 1.4-2.2-20.2zM263.5 396.9l19.9 4.1-5.9 22.9-19.9-4.1zM648.7 50.4l15.8-5.3 14.5 5.7-13 15.6zM425.4 480.6l12.2 11.4 1.8 15.5-19.9-4.1zM120.8 602l1.9 15.2-16.4 11.5-1.9-15.2zM173.2 464.6l17.6 7.2-16.5 10.5-17.6-7.2zM377.7 172.6l20.7 1.8-23.2 12.6-20.7-1.7zM395.5 735.4l11.7 7.6-11 11.5-11.7-7.6zM703.2 403.3l3.5 18.3-9.5-11.3-3.4-18.4zM51.3 536.9l1 20.7-13.2-7.8-1-20.7zM568.5 245l12.2-5.9-3 21.1-12.2 5.9zM583.2 407.8l12.3-6-3 21.2-12.3 5.9zM759.2 587.7l11.4 4.7-10.8 6.9-11.4-4.7zM153.2 40.9l7.8-14.7-.8 18.8-7.8 14.7zM506.5 496.4l16.6.7-17.3 7.4-16.6-.7zM406.9 551.7l11.6 4.8-11 7-11.6-4.8zM190.4 190.8l11.7 4.8-11 7-11.7-4.8zM281.3 581.9l11.4 4.7-10.8 6.9-11.4-4.7zM274.5 55.7l11.5 4.7-10.8 6.9-11.4-4.7zM737 708.2l11.7 4.8-11 7-11.7-4.8zM47.8 211.3l11.9 13.1-17.1-7.6-11.9-13.2z"/><path class="st2" d="M656.3 289.5l-5.4-7 4-9.7 2.9 2.3z"/><path transform="rotate(-89.426 97.35 671.827) scale(.99995)" class="st2" d="M88.9 668.3h16.8v7.1H88.9z"/><path class="st2" d="M201.5 167.5l-5.4-7.1 4.1-9.7 2.9 2.3zM634.9 69.3l10.7-8.6-5.3 16.8-10.8 8.6zM204 342l4.5 9.9-13.3-10.8-4.5-9.9zM580.3 695.3l11.7 4.8-11 7-11.7-4.8zM537.1 614.7l3.5 18.4-9.5-11.4-3.4-18.4zM492.3 116.7l-5.9 16.7-1.4-18.7 5.9-16.7zM655.8 503.7l-12.1-8 2.2-18.8 12.1 8zM240.1 683.6V662l25 1.3v21.6zM685.9 607.4l-3.4-16.8 17.6 4.9 3.3 16.8zM44.2 800.5l-19.9-4.1 5.9-22.9 19.9 4.1zM517.1 540.8l-19.9-4.1 5.9-22.9 19.9 4.1zM712.9 352.2l-19.9-4.1 5.9-22.8 19.9 4.1zM734.9 139.2l-19.9-4 5.9-22.9 19.9 4.1zM60.6 300.1L40.7 296l5.9-22.8 19.9 4.1zM424.6 788l-18.9-7.6 10-21.4 18.8 7.6zM263.9 238l-6.3-20.7 24.3-6.1 6.3 20.6zM144.8 537.2l-12.2-11.5-1.8-15.5 19.9 4.1zM278.7 470.8l-20.5-6.6 8.9-23.5 20.5 6.6zM182.4 101.2l-20.6-6.7 8.9-23.4 20.5 6.6zM733.7 768l-8-18.7 22.2-8.2 8 18.7zM308.3 74.1l-8.1-18.7 22.2-8.2 8 18.7zM739.1 550.1l-8-18.7 22.2-8.2 8 18.7zM330.9 620.9l-19.9-4.1 5.9-22.9 19.9 4.1zM650.8 130.1l8.1 10.5-6.1 14.6-4.4-3.5zM349.1 248.9l8.1 10.5-6.1 14.6-4.3-3.5zM341.5 514.3l-17.6-7.1 16.5-10.5 17.6 7.1zM383.5 417.1l-17.6-7.2 16.5-10.5 17.5 7.2zM116 188.6l-17.2-7.1 16.1-10.3 17.2 7zM486.7 601.4l5.4 7-4.1 9.8-2.8-2.4zM421 181.2l20.9 8.1 17.7-10.7-21-8.2zM554.8 313.8L550 288l13.2 15.9 4.9 25.9z"/><path transform="matrix(.00993 -1 1 .00993 204.017 528.98)" class="st2" d="M360.9 158h16.5v7h-16.5z"/><path class="st2" d="M367.2 153.2l5.3 6.9-3.9 9.6-2.9-2.3zM577.1 473.6l-7.3-14.8 11.2 4.9 7.3 14.8zM167.3 656.9l-6.3 16.4-1-18.7 6.2-16.5zM218.3 779.9l-1-20.6 13.2 7.8 1 20.7zM451.3 471.6l-11.4-7.3 19.5-8.5 11.5 7.3zM601.2 201l-12.3 5.9 3-21.1 12.3-5.9zM116.6 310.4l-12.2 6 3-21.2 12.2-5.9z"/><path transform="matrix(.00995 -1 1 .00995 -348.799 1025.376)" class="st2" d="M335.2 685.3h16.5v7h-16.5z"/><path class="st2" d="M447.7 353.7l-11.6-4.8 10.9-7 11.7 4.8zM743.2 410.6l-3.4-18.4 9.4 11.4 3.4 18.4zM40.8 468.6L30 477.3l5.4-16.8 10.7-8.6zM591.4 554.2l-9.8 8-.9-13 9.7-8zM324.3 779.4l-11.7-4.8 11-7 11.7 4.8z"/><path class="st0" d="M581.8-391.9l-3.4-18.3 9.4 11.3 3.5 18.4zM601.9-317.9l19.9 4.1-5.9 22.8-19.9-4.1zM564.2-91l4.8 25.9-13.3-16-4.8-25.8zM541.9-250.7l7.3 14.8-11.2-5-7.3-14.8zM517.8 21.8l12.3-5.9-3 21.1-12.3 5.9zM527.6-331.4l9.7-8 1 13-9.8 8z"/><path class="st1" d="M577.8-204.1l19.9 4.1-5.9 22.9-19.9-4.1zM487.6-136.4l17.5 7.2-16.5 10.5-17.5-7.2zM595.6-19.1l11.5 4.7-10.8 6.9-11.5-4.7z"/><path class="st2" d="M518.3-259l4.6 9.9-13.3-10.8-4.6-9.9zM578.3-363.1l-6.4-20.6 24.4-6.1 6.3 20.6zM593.1-130.2l-20.6-6.6 8.9-23.5 20.6 6.6z"/><path class="st0" d="M350-128.2l-3.5-18.4 9.5 11.4 3.4 18.4zM231.3-17.2l12.1 8-2.2 18.8-12.1-8zM370-54.3l19.9 4.1-5.9 22.9-19.9-4.1zM400.4-114.9l-5.4-7 4.1-9.8 2.8 2.4zM295.7-67.7l9.8-8 .9 13-9.7 8z"/><path class="st1" d="M272.9-146.5l11.7 4.7-11 7.1-11.7-4.8z"/><path class="st2" d="M284-169.9l-5.4-7 4.1-9.7 2.9 2.3zM286.4 4.7l4.6 9.9-13.3-10.8-4.6-9.9zM346.4-99.4l-6.3-20.6 24.3-6.2 6.3 20.7zM198.4-148.8l-17.2-7 16.2-10.3 17.2 7z"/><path class="st0" d="M412.3-400.8l20.6 6.6-8.9 23.5-20.5-6.6zM349.6-444.3l17.5 7.1-16.4 10.6-17.6-7.2zM307.6-347.1l17.6 7.2-16.5 10.5-17.6-7.1z"/><path class="st1" d="M364.7-343.4l-10.9-.7 15.8-6.6 10.9.7zM311.9-273.2l12.2 11.4 1.8 15.5-19.9-4.1zM455-508.8l12.2-5.9-3 21.1-12.3 5.9zM392.9-257.4l16.6.7-17.3 7.4-16.6-.7z"/><path class="st2" d="M441.3-440l-4.9-25.8 13.3 15.9 4.8 25.9zM463.5-280.3l-7.3-14.8 11.2 5 7.3 14.8zM337.8-282.2l-11.5-7.3 19.6-8.5 11.4 7.3zM334.2-400.1l-11.7-4.8 11-7 11.7 4.8z"/><path class="st0" d="M132.1-223.7l-20.7 6.4-6.1-24.4L126-248zM143-308.9l10.6-8.1 14.6 6.1-3.5 4.3z"/><path class="st1" d="M139.2-145l-14.7-7.8 18.8.8 14.7 7.8zM130.3-5.2l-4.7 11.4-6.9-10.7 4.7-11.5zM166.3-357.5l-4.8 11.7-7-11 4.8-11.7z"/><path class="st2" d="M103.3-227.2l-18.4 3.4 11.4-9.4 18.4-3.5zM110.6-78.5l16.8-3.4-4.9 17.6-16.8 3.4zM167.9-25.3l18.7-8 8.2 22.2-18.7 8zM97.1-433.4l4.1-19.9 22.9 5.9-4.1 19.9zM116.6-277.7l-7 5.4-9.8-4 2.3-2.9zM163.8-173l-8-9.7 13-1 8 9.8z"/><path class="st0" d="M44.5-43.3l19.9 4.1-5.9 22.8-19.9-4.1z"/><path class="st1" d="M62.5-159.7l5.4 7-4 9.8-2.9-2.4zM19.5-271.2l19.9 4.1-5.9 22.8-19.9-4z"/><path class="st2" d="M13.4-164.1l-19.9-4.1 5.9-22.9 19.9 4.1zM39.6 33.7l-8-18.6 22.2-8.3 8 18.7zM43.7-105.8l-3.4-18.3 9.4 11.3 3.4 18.4z"/><path class="st0" d="M662.5-48l6-16.7 1.4 18.7-6 16.7zM733.8-112.5l-20.9-8.2-17.6 10.7 20.9 8.2zM703.8-261.7l11.7 4.8-11 7-11.7-4.8z"/><path class="st1" d="M745.7-19.8l11.7 7.6-11 11.5-11.7-7.6zM757.1-203.5l11.6 4.8-11 7-11.6-4.8z"/><path class="st2" d="M681.1-134.3l-19.9-4.1 5.9-22.9 20 4.1zM691.7-240.9l-17.6-7.1 16.5-10.5 17.6 7.1z"/><path transform="matrix(.00995 -1 1 .00995 753.084 627.871)" class="st2" d="M685.4-69.9h16.5v7h-16.5z"/><path class="st2" d="M674.5 24.2l-11.7-4.8 11-7 11.7 4.8z"/><path class="st0" d="M490-72.5l5.4 7-4.1 9.8-2.9-2.4zM575.6-93.6l17.2 7-16.2 10.3-17.2-7zM574.9-215.5l12.3-5.9-3.1 21.1-12.2 5.9z"/><path class="st1" d="M506.3-150.1l-7.8 14.7.8-18.8 7.8-14.6zM434.6-30.8l-4.6-9.9 13.3 10.8 4.6 9.9z"/><path class="st2" d="M467.2-33.6l11.7 4.8-11 7-11.7-4.8zM572.8-121.5l-3.4-16.8 17.6 4.9 3.4 16.8zM478.3-174.7l-9.8 8-.9-13 9.7-8z"/><path class="st0" d="M199 1191.6l3.5 18.4-9.5-11.4-3.4-18.4zM179 1117.6l-19.9-4 5.9-22.9 19.9 4.1zM216.7 890.7l-4.9-25.8 13.3 15.9 4.8 25.9zM238.9 1050.5l-7.3-14.8 11.2 4.9 7.3 14.8zM253.3 1131.1l-9.8 8-1-13 9.8-8z"/><path class="st1" d="M203 1003.8l-19.9-4.1 5.9-22.8 19.9 4zM293.3 936.1l-17.6-7.1 16.5-10.5 17.6 7.1z"/><path class="st2" d="M262.5 1058.7l-4.6-9.9 13.4 10.8 4.5 9.9zM202.6 1162.8l6.3 20.6-24.3 6.1-6.3-20.6zM187.7 929.9l20.6 6.6-8.9 23.5-20.5-6.6z"/><path class="st0" d="M430.9 927.9l3.4 18.4-9.4-11.4-3.5-18.4zM410.9 854l-19.9-4.1 5.9-22.9 19.9 4.1zM380.4 914.6l5.5 7-4.1 9.8-2.9-2.3zM485.1 867.4l-9.7 8-1-13 9.8-8z"/><path class="st1" d="M508 946.2l-11.7-4.7 11-7 11.6 4.7z"/><path class="st2" d="M496.8 969.6l5.4 7-4 9.8-2.9-2.4zM434.5 899.1l6.3 20.7-24.4 6.1-6.3-20.7zM582.4 948.5l17.2 7-16.2 10.3-17.2-7z"/><path class="st0" d="M368.5 1200.5l-20.5-6.6 8.8-23.5 20.6 6.6zM431.2 1244l-17.5-7.1 16.5-10.5 17.5 7.1zM473.2 1146.8l-17.5-7.2 16.5-10.5 17.5 7.2z"/><path class="st1" d="M416.2 1143.1l10.8.7-15.8 6.6-10.8-.7zM469 1072.9l-12.2-11.4-1.8-15.5 19.9 4.1zM325.9 1308.5l-12.3 5.9 3-21.1 12.3-5.9zM387.9 1057.1l-16.6-.7 17.3-7.4 16.6.7z"/><path class="st2" d="M339.6 1239.7l4.8 25.9-13.3-16-4.8-25.8zM317.3 1080l7.3 14.8-11.2-5-7.3-14.8zM443 1081.9l11.5 7.3-19.5 8.6-11.5-7.4zM446.6 1199.8l11.7 4.8-11 7-11.7-4.7z"/><path class="st0" d="M648.7 1023.4l20.7-6.3 6.1 24.3-20.6 6.3zM637.8 1108.6l-10.5 8.1-14.6-6.1 3.5-4.3z"/><path class="st1" d="M641.7 944.7l14.7 7.8-18.8-.8-14.7-7.8zM614.6 1157.2l4.7-11.6 7 11-4.7 11.6z"/><path class="st2" d="M677.5 1027l18.4-3.5-11.3 9.5-18.4 3.4zM670.2 878.2l-16.8 3.4 4.9-17.6 16.8-3.3zM613 825l-18.7 8-8.2-22.2 18.7-8zM683.7 1233.2l-4.1 19.9-22.8-5.9 4.1-20zM664.3 1077.4l7-5.4 9.8 4.1-2.4 2.8zM617.1 972.7l8 9.8-13 .9-8-9.7z"/><path class="st0" d="M736.3 843.1l-19.9-4.1 5.9-22.9 19.9 4.1z"/><path class="st1" d="M718.3 959.4l-5.4-7 4.1-9.8 2.9 2.4zM761.3 1070.9l-19.9-4.1 5.9-22.8 19.9 4.1z"/><path class="st2" d="M767.4 963.9l20 4.1-5.9 22.8-20-4.1zM737.1 905.5l3.5 18.4-9.4-11.4-3.5-18.4z"/><path class="st0" d="M118.3 847.7l-5.9 16.7-1.4-18.7 5.9-16.7zM47 912.3l20.9 8.1 17.7-10.7-20.9-8.2zM77 1061.4l-11.7-4.8 11-7 11.7 4.8z"/><path class="st1" d="M23.8 1003.2l-11.7-4.8 11-7 11.7 4.8z"/><path class="st2" d="M99.7 934l19.9 4.1-5.9 22.9-19.9-4.1zM89.2 1040.6l17.5 7.1-16.5 10.5-17.5-7.1z"/><path transform="matrix(.00995 -1 1 .00995 -779.684 944.7)" class="st2" d="M79 862.6h16.5v7H79z"/><path class="st0" d="M290.9 872.2l-5.5-7 4.1-9.7 2.9 2.3zM205.3 893.3l-17.2-7 16.2-10.3 17.2 7zM206 1015.2l-12.3 5.9 3-21.1 12.3-5.9z"/><path class="st1" d="M274.5 949.8l7.8-14.7-.8 18.8-7.8 14.7zM346.3 830.5l4.6 9.9-13.4-10.8-4.5-9.9z"/><path class="st2" d="M313.6 833.3l-11.7-4.8 11-7 11.7 4.8zM208 921.2l3.4 16.8-17.5-4.9-3.4-16.8zM302.6 974.4l9.7-8 1 13-9.8 8z"/></g></svg>